<?xml version="1.0" encoding="UTF-8" standalone="no"?><!DOCTYPE svg PUBLIC "-//W3C//DTD SVG 1.1//EN" "http://www.w3.org/Graphics/SVG/1.1/DTD/svg11.dtd"><svg width="100%" height="100%" viewBox="0 0 3334 2500" version="1.1" xmlns="http://www.w3.org/2000/svg" xmlns:xlink="http://www.w3.org/1999/xlink" xml:space="preserve" xmlns:serif="http://www.serif.com/" style="fill-rule:evenodd;clip-rule:evenodd;stroke-linecap:round;stroke-linejoin:round;stroke-miterlimit:1.5;"><path d="M1634.09,2106.31l-0.754,-68.813l-29.165,0.32l0.755,68.813l29.164,-0.32Z" style="fill:#e2a027;stroke:#c17d00;stroke-width:12.5px;"/><g><ellipse cx="1661.73" cy="1034.69" rx="517.98" ry="513.852" style="fill:#1c1913;"/><path d="M1669.77,788.078c220.551,3.417 396.009,238.751 391.572,525.201c-4.437,286.45 -187.099,516.237 -407.651,512.821c-220.551,-3.416 -396.008,-238.751 -391.571,-525.201c4.437,-286.449 187.098,-516.237 407.65,-512.821Z" style="fill:#e2a027;"/><g><path d="M1537.64,1651.33c83.799,18.099 165.174,17.819 244.239,0" style="fill:#e29227;stroke:#000;stroke-width:4.17px;"/><path d="M1538.53,1651.33c6.605,0.381 65.906,-36.205 86.185,-40.73c12.135,-2.709 35.488,13.577 35.488,13.577c-0,-0 26.812,-16.645 40.558,-13.577c20.279,4.525 81.115,40.73 81.115,40.73c0,0 -33.968,26.782 -50.697,40.731c-18.499,15.424 -37.424,33.138 -70.976,33.942c-26.255,0.629 -65.262,-20.454 -86.254,-43.64c-30.625,-33.825 -39.377,-31.261 -35.419,-31.033Z" style="fill:#e29227;stroke:#000;stroke-width:4.17px;"/></g><path d="M2061.97,1165.24c0.301,-271.142 -178.796,-491.474 -399.693,-491.719c-220.898,-0.245 -400.483,219.689 -400.784,490.831c93.479,-81.239 240.744,-147.116 400.402,-146.938c159.658,0.177 306.776,66.38 400.075,147.826Z" style="fill:#1c1913;"/><ellipse cx="1472.33" cy="1307.09" rx="103.183" ry="51.592" style="fill:#fffefb;stroke:#0d0000;stroke-width:4.17px;"/><ellipse cx="1860.3" cy="1307.09" rx="103.183" ry="51.592" style="fill:#fffefb;stroke:#0d0000;stroke-width:4.17px;"/><g><circle cx="1862.83" cy="1307.09" r="51.592" style="fill:#865616;stroke:#000;stroke-width:2.42px;"/><ellipse cx="1861.47" cy="1306.41" rx="17.65" ry="16.971" style="fill:#130b01;stroke:#000;stroke-width:2.42px;"/><path d="M1902.39,1289.44c4.84,-4.696 3.554,-13.882 -2.869,-20.501c-6.422,-6.618 -15.566,-8.178 -20.405,-3.481c4.167,1.389 9.625,4.655 14.267,9.438c4.643,4.784 7.743,10.337 9.007,14.544Z" style="fill:#ccb89d;"/><path d="M1872.99,1306.41c2.629,-2.551 2.183,-7.283 -0.996,-10.559c-3.179,-3.275 -7.895,-3.863 -10.524,-1.311c2.133,0.619 4.891,2.18 7.189,4.548c2.298,2.368 3.776,5.172 4.331,7.322Z" style="fill:#737373;"/></g><g><path d="M1638.95,1366.93l-20.636,132.075c-0,-0 -28.891,33.019 -33.019,57.783c-1.823,10.94 41.273,8.254 41.273,8.254c0,0 22.013,12.382 33.019,12.382c11.006,0 33.019,-12.382 33.019,-12.382c-0,0 38.106,1.247 41.273,-8.254c4.127,-12.382 -24.764,-49.528 -24.764,-49.528" style="fill:none;stroke:#000;stroke-width:4.17px;"/></g><path d="M1537.45,1652.92c82.036,12.653 163.564,9.991 244.571,0.005c0.663,-0.082 1.135,-0.686 1.053,-1.349c-0.082,-0.663 -0.686,-1.135 -1.349,-1.053c-80.787,9.959 -162.093,12.624 -243.906,0.005c-0.66,-0.102 -1.279,0.352 -1.381,1.012c-0.101,0.66 0.352,1.278 1.012,1.38Z"/><ellipse cx="1483.68" cy="1307.09" rx="52.623" ry="50.56" style="fill:#865616;stroke:#000;stroke-width:2.42px;"/><ellipse cx="1482.29" cy="1306.42" rx="18.003" ry="16.632" style="fill:#130b01;stroke:#000;stroke-width:2.42px;"/><path d="M1524.04,1289.79c4.936,-4.602 3.625,-13.605 -2.926,-20.091c-6.551,-6.485 -15.878,-8.014 -20.814,-3.412c4.25,1.362 9.818,4.562 14.553,9.25c4.735,4.688 7.898,10.131 9.187,14.253Z" style="fill:#ccb89d;"/><path d="M1494.04,1306.42c2.683,-2.501 2.227,-7.138 -1.015,-10.348c-3.243,-3.21 -8.053,-3.786 -10.735,-1.285c2.175,0.607 4.989,2.137 7.333,4.457c2.344,2.32 3.851,5.068 4.417,7.176Z" style="fill:#737373;"/></g><g transform="matrix(4.16667,0,0,4.16667,-30.1634,-29.5602)"><g transform="matrix(0.642496,0.40771,-0.535799,0.844346,325.884,-22.8855)"><text x="229.798px" y="454.89px" style="font-family:'KristenITC-Regular', 'Kristen ITC', cursive;font-stretch:semi-expanded;font-size:100px;fill:#e2a027;stroke:#784400;stroke-width:3.38px;stroke-linecap:butt;stroke-miterlimit:2;">A</text></g><g transform="matrix(0.709513,0.274991,-0.361383,0.932417,261.086,-45.8015)"><text x="287.346px" y="491.487px" style="font-family:'KristenITC-Regular', 'Kristen ITC', cursive;font-stretch:semi-expanded;font-size:100px;fill:#e2a027;stroke:#784400;stroke-width:3.38px;stroke-linecap:butt;stroke-miterlimit:2;">f</text></g><g transform="matrix(0.738906,0.181786,-0.238897,0.971045,204.931,-43.8965)"><text x="322.046px" y="505.854px" style="font-family:'KristenITC-Regular', 'Kristen ITC', cursive;font-stretch:semi-expanded;font-size:100px;fill:#e2a027;stroke:#784400;stroke-width:3.38px;stroke-linecap:butt;stroke-miterlimit:2;">r</text></g><g transform="matrix(0.758272,0.0636572,-0.0836561,0.996495,128.894,-20.7785)"><text x="354.802px" y="515.546px" style="font-family:'KristenITC-Regular', 'Kristen ITC', cursive;font-stretch:semi-expanded;font-size:100px;fill:#e2a027;stroke:#784400;stroke-width:3.38px;stroke-linecap:butt;stroke-miterlimit:2;">o</text></g><g transform="matrix(0.75783,-0.0687125,0.0902996,0.995915,50.1917,29.7089)"><text x="401.408px" y="520.68px" style="font-family:'KristenITC-Regular', 'Kristen ITC', cursive;font-stretch:semi-expanded;font-size:100px;fill:#e2a027;stroke:#784400;stroke-width:3.38px;stroke-linecap:butt;stroke-miterlimit:2;">c</text></g><g transform="matrix(0.739389,-0.17981,0.2363,0.97168,-5.66823,95.0749)"><text x="447.281px" y="517.284px" style="font-family:'KristenITC-Regular', 'Kristen ITC', cursive;font-stretch:semi-expanded;font-size:100px;fill:#e2a027;stroke:#784400;stroke-width:3.38px;stroke-linecap:butt;stroke-miterlimit:2;">a</text></g><g transform="matrix(0.703871,-0.289126,0.37996,0.925003,-48.5796,179.305)"><text x="488.284px" y="508.408px" style="font-family:'KristenITC-Regular', 'Kristen ITC', cursive;font-stretch:semi-expanded;font-size:100px;fill:#e2a027;stroke:#784400;stroke-width:3.38px;stroke-linecap:butt;stroke-miterlimit:2;">n</text></g><g transform="matrix(0.646635,-0.401114,0.52713,0.849785,-72.0065,287.208)"><text x="531.453px" y="492.864px" style="font-family:'KristenITC-Regular', 'Kristen ITC', cursive;font-stretch:semi-expanded;font-size:100px;fill:#e2a027;stroke:#784400;stroke-width:3.38px;stroke-linecap:butt;stroke-miterlimit:2;">A</text></g></g><path d="M1734.28,1225.34c56.636,-35.374 118.57,-45.57 185.471,-32.16" style="fill:none;stroke:#000;stroke-width:20.83px;"/><path d="M1566.67,1225.34c-59.375,-30.555 -121.942,-35.579 -187.5,-16.666" style="fill:none;stroke:#000;stroke-width:20.83px;"/></svg>